<svg xmlns="http://www.w3.org/2000/svg" viewBox="0 0 240 240" width="240" height="240"><path d="M60.0,0 H180.0 A60.0,60.0 0 0 1 240,60.0 V180.0 A60.0,60.0 0 0 1 180.0,240 H60.0 A60.0,60.0 0 0 1 0,180.0 V60.0 A60.0,60.0 0 0 1 60.0,0 Z" fill="#2C5243"/><path d="M93.65759999999999 64.26239999999999C93.65759999999999 56.601599999999976 87.60959999999999 51.09119999999997 78.87359999999998 51.09119999999997C70.13759999999999 51.09119999999997 64.08959999999999 56.601599999999976 64.08959999999999 64.26239999999999C64.08959999999999 71.78879999999998 70.13759999999999 77.29919999999998 78.87359999999998 77.29919999999998C87.60959999999999 77.29919999999998 93.65759999999999 71.78879999999998 93.65759999999999 64.26239999999999ZM90.56639999999999 153.3696V81.06239999999998H67.58399999999999V153.3696Z M101.04959999999998 117.21599999999998C101.04959999999998 138.1824 113.81759999999998 154.71359999999999 133.3056 154.71359999999999C140.832 154.71359999999999 147.2832 152.0256 152.928 146.6496V179.3088H175.91039999999998V81.06239999999998H154.8096V89.26079999999999C148.896 83.07839999999999 141.7728 79.71839999999997 133.3056 79.71839999999997C113.81759999999998 79.71839999999997 101.04959999999998 96.51839999999999 101.04959999999998 117.21599999999998ZM124.97279999999998 117.21599999999998C124.97279999999998 105.92639999999999 131.8272 100.41599999999998 138.81599999999997 100.41599999999998C145.9392 100.41599999999998 152.6592 105.92639999999999 152.6592 117.35039999999998C152.6592 128.90879999999999 145.8048 134.016 138.81599999999997 134.016C131.8272 134.016 124.97279999999998 128.77439999999999 124.97279999999998 117.21599999999998Z" fill="#FAF7F1"/></svg>