<svg xmlns="http://www.w3.org/2000/svg" viewBox="0 0 280 280" width="280" height="280"><g transform="rotate(-9 140 140)"><circle cx="140" cy="140" r="116" fill="none" stroke="#D9531E" stroke-width="13"/><path d="M72.43099999999998 129.708C81.16699999999997 129.708 88.01299999999998 123.114 88.01299999999998 113.958C88.01299999999998 104.802 81.16699999999997 98.292 72.43099999999998 98.292C63.73699999999997 98.292 56.89099999999998 104.802 56.89099999999998 113.958C56.89099999999998 123.114 63.73699999999997 129.708 72.43099999999998 129.708ZM72.43099999999998 122.61C67.68499999999997 122.61 65.03899999999997 118.70400000000001 65.03899999999997 113.958C65.03899999999997 109.212 67.68499999999997 105.39 72.43099999999998 105.39C77.17699999999998 105.39 79.82299999999998 109.212 79.82299999999998 113.958C79.82299999999998 118.70400000000001 77.17699999999998 122.61 72.43099999999998 122.61Z M112.90699999999998 129.078H120.55099999999999V98.922H113.28499999999998V116.352L102.15499999999997 98.922H93.62899999999998V129.078H100.89499999999998V110.262Z M153.07699999999997 129.078V106.104H162.31699999999998V98.922H135.89899999999997V106.104H145.13899999999998V129.078Z M175.325 129.078V117.024H186.45499999999998V129.078H194.39299999999997V98.922H186.45499999999998V110.136H175.325V98.922H167.38699999999997V129.078Z M223.10899999999998 122.19H209.71099999999996V117.024H221.59699999999998V110.136H209.71099999999996V105.81H222.81499999999997V98.922H201.77299999999997V129.078H223.10899999999998Z" fill="#D9531E"/><path d="M54.475999999999985 181.078V171.04H57.079999999999984L63.25399999999999 181.078H72.70399999999998L65.31199999999998 169.78C69.38599999999998 168.058 71.69599999999998 164.866 71.69599999999998 161.002C71.69599999999998 154.576 67.03399999999999 150.922 58.88599999999998 150.922H46.53799999999998V181.078ZM54.475999999999985 157.474H58.54999999999998C62.07799999999999 157.474 63.71599999999999 158.608 63.71599999999999 161.002C63.71599999999999 163.39600000000002 62.07799999999999 164.488 58.54999999999998 164.488H54.475999999999985Z M99.10999999999999 174.19H85.71199999999999V169.024H97.59799999999998V162.136H85.71199999999999V157.81H98.81599999999999V150.922H77.77399999999999V181.078H99.10999999999999Z M118.71199999999999 181.708C126.98599999999999 181.708 133.328 176.248 134.33599999999998 168.184H125.93599999999999C125.26399999999998 172.006 122.44999999999999 174.61 118.79599999999999 174.61C114.344 174.61 111.52999999999999 171.124 111.52999999999999 165.958C111.52999999999999 160.834 114.344 157.39 118.79599999999999 157.39C122.49199999999999 157.39 125.30599999999998 159.994 125.93599999999999 163.774H134.33599999999998C133.37 155.794 126.98599999999999 150.292 118.71199999999999 150.292C110.14399999999999 150.292 103.38199999999999 157.138 103.38199999999999 165.958C103.38199999999999 174.82 110.14399999999999 181.708 118.71199999999999 181.708Z M153.728 181.708C162.464 181.708 169.31 175.114 169.31 165.958C169.31 156.802 162.464 150.292 153.728 150.292C145.034 150.292 138.188 156.802 138.188 165.958C138.188 175.114 145.034 181.708 153.728 181.708ZM153.728 174.61C148.982 174.61 146.336 170.704 146.336 165.958C146.336 161.212 148.982 157.39 153.728 157.39C158.474 157.39 161.12 161.212 161.12 165.958C161.12 170.704 158.474 174.61 153.728 174.61Z M182.86399999999998 181.078V171.04H185.468L191.642 181.078H201.09199999999998L193.7 169.78C197.774 168.058 200.084 164.866 200.084 161.002C200.084 154.576 195.422 150.922 187.274 150.922H174.926V181.078ZM182.86399999999998 157.474H186.938C190.46599999999998 157.474 192.10399999999998 158.608 192.10399999999998 161.002C192.10399999999998 163.39600000000002 190.46599999999998 164.488 186.938 164.488H182.86399999999998Z M217.92199999999997 181.078C227.24599999999998 181.078 233.462 174.61 233.462 165.832C233.462 157.054 227.456 150.922 217.92199999999997 150.922H206.16199999999998V181.078ZM214.09999999999997 157.768H217.45999999999998C222.62599999999998 157.768 225.314 160.498 225.314 165.832C225.314 171.502 222.70999999999998 174.232 217.45999999999998 174.232H214.09999999999997Z" fill="#D9531E"/></g></svg>