<svg xmlns="http://www.w3.org/2000/svg" viewBox="0 0 876 260" width="876" height="260"><path d="M75.0,20 H185.0 A55.0,55.0 0 0 1 240,75.0 V185.0 A55.0,55.0 0 0 1 185.0,240 H75.0 A55.0,55.0 0 0 1 20,185.0 V75.0 A55.0,55.0 0 0 1 75.0,20 Z M105.8528 78.90719999999997C105.8528 71.88479999999998 100.30879999999999 66.83359999999998 92.3008 66.83359999999998C84.2928 66.83359999999998 78.74879999999999 71.88479999999998 78.74879999999999 78.90719999999997C78.74879999999999 85.80639999999998 84.2928 90.85759999999998 92.3008 90.85759999999998C100.30879999999999 90.85759999999998 105.8528 85.80639999999998 105.8528 78.90719999999997ZM103.0192 160.5888V94.30719999999998H81.952V160.5888Z M112.6288 127.44799999999998C112.6288 146.66719999999998 124.33279999999999 161.8208 142.1968 161.8208C149.096 161.8208 155.0096 159.3568 160.184 154.4288V184.3664H181.25119999999998V94.30719999999998H161.90879999999999V101.82239999999999C156.488 96.15519999999998 149.95839999999998 93.07519999999998 142.1968 93.07519999999998C124.33279999999999 93.07519999999998 112.6288 108.47519999999999 112.6288 127.44799999999998ZM134.5584 127.44799999999998C134.5584 117.0992 140.8416 112.04799999999999 147.248 112.04799999999999C153.7776 112.04799999999999 159.9376 117.0992 159.9376 127.57119999999999C159.9376 138.16639999999998 153.6544 142.84799999999998 147.248 142.84799999999998C140.8416 142.84799999999998 134.5584 138.04319999999998 134.5584 127.44799999999998Z" fill="#FAF7F1" fill-rule="evenodd"/><path d="M319.972 170.774V64.51H292.0V170.774Z M386.336 172.994C388.55600000000004 172.994 390.62800000000004 172.846 392.848 172.698L406.464 197.71H434.43600000000004L416.67600000000004 164.262C431.624 154.79 441.244 137.918 441.244 117.494C441.244 85.23 417.12 62.290000000000006 386.336 62.290000000000006C355.7 62.290000000000006 331.576 85.23 331.576 117.494C331.576 149.758 355.7 172.994 386.336 172.994ZM386.336 147.982C369.612 147.982 360.288 134.21800000000002 360.288 117.494C360.288 100.77000000000001 369.612 87.302 386.336 87.302C403.06 87.302 412.384 100.77000000000001 412.384 117.494C412.384 134.21800000000002 403.06 147.982 386.336 147.982Z M528.684 172.994C557.8399999999999 172.994 580.188 153.754 583.74 125.338H554.14C551.7719999999999 138.806 541.856 147.982 528.98 147.982C513.292 147.982 503.376 135.698 503.376 117.494C503.376 99.438 513.292 87.302 528.98 87.302C542.004 87.302 551.92 96.47800000000001 554.14 109.798H583.74C580.336 81.67800000000001 557.8399999999999 62.290000000000006 528.684 62.290000000000006C498.49199999999996 62.290000000000006 474.664 86.414 474.664 117.494C474.664 148.722 498.49199999999996 172.994 528.684 172.994Z M618.5799999999999 134.07C618.5799999999999 116.458 629.9759999999999 115.126 647.8839999999999 116.902V90.558C635.156 90.558 622.5759999999999 95.88600000000001 616.5079999999999 105.21000000000001V91.15H593.2719999999999V170.774H618.5799999999999Z M689.9759999999999 172.106C709.808 172.106 723.8679999999999 161.894 728.752 143.69H703.444C701.2239999999999 149.462 696.4879999999999 152.422 689.3839999999999 152.422C681.2439999999999 152.422 676.5079999999999 147.39 675.1759999999999 137.326H729.1959999999999C733.7839999999999 111.13 716.1719999999999 89.67 689.828 89.67C666.1479999999999 89.67 648.9799999999999 106.986 648.9799999999999 130.814C648.9799999999999 155.53 665.4079999999999 172.106 689.9759999999999 172.106ZM689.2359999999999 108.31800000000001C696.7839999999999 108.31800000000001 701.8159999999999 113.498 702.112 121.49000000000001H675.472C677.2479999999999 112.61000000000001 681.6879999999999 108.31800000000001 689.2359999999999 108.31800000000001Z M801.0359999999998 170.774H826.1959999999999L848.6919999999999 91.15H823.8279999999999L812.7279999999998 134.81L801.6279999999999 91.15H776.3199999999999L764.6279999999999 134.81L753.5279999999999 91.15H728.8119999999999L751.1599999999999 170.774H776.4679999999998L788.7519999999998 125.634Z" fill="#FAF7F1"/></svg>