<svg xmlns="http://www.w3.org/2000/svg" viewBox="0 0 240 240" width="240" height="240"><path d="M65.0,10 H175.0 A55.0,55.0 0 0 1 230,65.0 V175.0 A55.0,55.0 0 0 1 175.0,230 H65.0 A55.0,55.0 0 0 1 10,175.0 V65.0 A55.0,55.0 0 0 1 65.0,10 Z" fill="#2C5243"/><path d="M95.8528 68.90719999999997C95.8528 61.884799999999984 90.30879999999999 56.833599999999976 82.3008 56.833599999999976C74.2928 56.833599999999976 68.74879999999999 61.884799999999984 68.74879999999999 68.90719999999997C68.74879999999999 75.80639999999998 74.2928 80.85759999999998 82.3008 80.85759999999998C90.30879999999999 80.85759999999998 95.8528 75.80639999999998 95.8528 68.90719999999997ZM93.0192 150.5888V84.30719999999998H71.952V150.5888Z M102.6288 117.44799999999998C102.6288 136.66719999999998 114.33279999999999 151.8208 132.1968 151.8208C139.096 151.8208 145.0096 149.3568 150.184 144.4288V174.3664H171.25119999999998V84.30719999999998H151.90879999999999V91.82239999999999C146.488 86.15519999999998 139.95839999999998 83.07519999999998 132.1968 83.07519999999998C114.33279999999999 83.07519999999998 102.6288 98.47519999999999 102.6288 117.44799999999998ZM124.55839999999999 117.44799999999998C124.55839999999999 107.0992 130.8416 102.04799999999999 137.248 102.04799999999999C143.7776 102.04799999999999 149.9376 107.0992 149.9376 117.57119999999999C149.9376 128.16639999999998 143.6544 132.84799999999998 137.248 132.84799999999998C130.8416 132.84799999999998 124.55839999999999 128.04319999999998 124.55839999999999 117.44799999999998Z" fill="#FAF7F1"/></svg>