<svg xmlns="http://www.w3.org/2000/svg" viewBox="0 0 560 470" width="560" height="470"><path d="M215.0,24 H345.0 A65.0,65.0 0 0 1 410,89.0 V219.0 A65.0,65.0 0 0 1 345.0,284 H215.0 A65.0,65.0 0 0 1 150,219.0 V89.0 A65.0,65.0 0 0 1 215.0,24 Z M251.46239999999997 93.6176C251.46239999999997 85.3184 244.91039999999998 79.3488 235.44639999999998 79.3488C225.98239999999998 79.3488 219.43039999999996 85.3184 219.43039999999996 93.6176C219.43039999999996 101.7712 225.98239999999998 107.7408 235.44639999999998 107.7408C244.91039999999998 107.7408 251.46239999999997 101.7712 251.46239999999997 93.6176ZM248.11359999999996 190.15040000000002V111.8176H223.21599999999998V190.15040000000002Z M259.4704 150.984C259.4704 173.69760000000002 273.30240000000003 191.6064 294.4144 191.6064C302.568 191.6064 309.5568 188.69440000000003 315.672 182.87040000000002V218.25120000000004H340.56960000000004V111.8176H317.7104V120.6992C311.30400000000003 114.0016 303.5872 110.3616 294.4144 110.3616C273.30240000000003 110.3616 259.4704 128.5616 259.4704 150.984ZM285.3872 150.984C285.3872 138.7536 292.81280000000004 132.784 300.384 132.784C308.1008 132.784 315.3808 138.7536 315.3808 151.1296C315.3808 163.65120000000002 307.9552 169.18400000000003 300.384 169.18400000000003C292.81280000000004 169.18400000000003 285.3872 163.50560000000002 285.3872 150.984Z" fill="#FAF7F1" fill-rule="evenodd"/><path d="M97.24600000000001 425.754V348.21000000000004H76.834V425.754Z M145.69 427.374C147.31 427.374 148.822 427.266 150.44199999999998 427.158L160.378 445.41H180.79L167.82999999999998 421.002C178.738 414.09000000000003 185.75799999999998 401.778 185.75799999999998 386.874C185.75799999999998 363.33000000000004 168.154 346.59000000000003 145.69 346.59000000000003C123.33399999999999 346.59000000000003 105.72999999999999 363.33000000000004 105.72999999999999 386.874C105.72999999999999 410.418 123.33399999999999 427.374 145.69 427.374ZM145.69 409.122C133.486 409.122 126.68199999999999 399.07800000000003 126.68199999999999 386.874C126.68199999999999 374.67 133.486 364.84200000000004 145.69 364.84200000000004C157.894 364.84200000000004 164.69799999999998 374.67 164.69799999999998 386.874C164.69799999999998 399.07800000000003 157.894 409.122 145.69 409.122Z M249.598 427.374C270.874 427.374 287.182 413.334 289.774 392.598H268.174C266.446 402.42600000000004 259.21 409.122 249.814 409.122C238.36599999999999 409.122 231.13 400.158 231.13 386.874C231.13 373.69800000000004 238.36599999999999 364.84200000000004 249.814 364.84200000000004C259.318 364.84200000000004 266.554 371.538 268.174 381.25800000000004H289.774C287.28999999999996 360.738 270.874 346.59000000000003 249.598 346.59000000000003C227.566 346.59000000000003 210.178 364.194 210.178 386.874C210.178 409.66200000000003 227.566 427.374 249.598 427.374Z M315.214 398.97C315.214 386.118 323.53 385.146 336.59799999999996 386.442V367.218C327.31 367.218 318.13 371.106 313.702 377.91V367.65000000000003H296.746V425.754H315.214Z M367.3299999999999 426.726C381.80199999999996 426.726 392.06199999999995 419.274 395.626 405.99H377.15799999999996C375.53799999999995 410.202 372.08199999999994 412.362 366.89799999999997 412.362C360.95799999999997 412.362 357.50199999999995 408.69 356.53 401.346H395.94999999999993C399.29799999999994 382.23 386.44599999999997 366.57000000000005 367.222 366.57000000000005C349.94199999999995 366.57000000000005 337.41399999999993 379.206 337.41399999999993 396.594C337.41399999999993 414.63 349.40199999999993 426.726 367.3299999999999 426.726ZM366.78999999999996 380.178C372.29799999999994 380.178 375.96999999999997 383.958 376.1859999999999 389.79H356.746C358.042 383.31 361.2819999999999 380.178 366.78999999999996 380.178Z M448.39 425.754H466.74999999999994L483.16599999999994 367.65000000000003H465.02199999999993L456.92199999999997 399.51L448.82199999999995 367.65000000000003H430.3539999999999L421.82199999999995 399.51L413.722 367.65000000000003H395.686L411.99399999999997 425.754H430.462L439.42599999999993 392.814Z" fill="#FAF7F1"/></svg>